<svg width="160" height="120" viewBox="0 0 160 120" fill="none" xmlns="http://www.w3.org/2000/svg" role="img" aria-labelledby="title desc">
  <title id="title">Red Angus cow</title>
  <desc id="desc">A friendly red Angus cow head icon.</desc>
  <rect width="160" height="120" rx="28" fill="#F7E9D7"/>
  <circle cx="80" cy="64" r="42" fill="#B84E32"/>
  <path d="M47 42C33 28 18 31 18 48C18 62 34 65 49 55" fill="#B84E32" stroke="#5A2418" stroke-width="5" stroke-linejoin="round"/>
  <path d="M113 42C127 28 142 31 142 48C142 62 126 65 111 55" fill="#B84E32" stroke="#5A2418" stroke-width="5" stroke-linejoin="round"/>
  <path d="M47 42C54 22 67 16 80 29C93 16 106 22 113 42" fill="#A9442C" stroke="#5A2418" stroke-width="5" stroke-linejoin="round"/>
  <path d="M45 54C45 31 59 20 80 20C101 20 115 31 115 54V69C115 95 100 108 80 108C60 108 45 95 45 69V54Z" fill="#C85A38" stroke="#5A2418" stroke-width="5" stroke-linejoin="round"/>
  <path d="M58 83C58 70 67 62 80 62C93 62 102 70 102 83C102 96 93 104 80 104C67 104 58 96 58 83Z" fill="#E7A07A" stroke="#5A2418" stroke-width="4"/>
  <circle cx="67" cy="58" r="5" fill="#2B1712"/>
  <circle cx="93" cy="58" r="5" fill="#2B1712"/>
  <circle cx="73" cy="84" r="3" fill="#5A2418"/>
  <circle cx="87" cy="84" r="3" fill="#5A2418"/>
  <path d="M63 41C69 37 74 37 78 40" stroke="#5A2418" stroke-width="4" stroke-linecap="round"/>
  <path d="M82 40C86 37 91 37 97 41" stroke="#5A2418" stroke-width="4" stroke-linecap="round"/>
  <path d="M80 22V37" stroke="#5A2418" stroke-width="4" stroke-linecap="round"/>
</svg>
